<svg version="1.0" xmlns="http://www.w3.org/2000/svg" width="1706.667" height="1706.667" viewBox="0 0 1280 1280"><path d="M623.4 20.7c.3 11.5.9 51.7 1.2 89.5l.7 68.8h16.9l-.6-8.8c-.3-4.8-.8-37.7-1.1-73.2-.3-35.5-.8-71.8-1.1-80.8L638.7 0h-16l.7 20.7zm282.3 129.1c-21.8 39.4-41.3 74.5-43.2 77.9l-3.4 6.2 6.9 4 6.9 4 1.9-3.2c1.8-2.9 84.4-151.4 85-152.7.2-.5-12.9-8-13.9-8-.2 0-18.3 32.3-40.2 71.8zM311.5 91c-3.4 2.1-5.9 4.4-5.7 5.1.5 2.2 91.5 150.9 92.3 150.9 1.2 0 12.9-7.2 12.9-7.9 0-1.1-92-151.6-92.8-151.8-.4-.1-3.4 1.6-6.7 3.7zm371.1 2.2c-.9 3.8-9.5 85.2-9.2 85.6.7.7 14.8 2.3 15.3 1.8.3-.3 2.5-18.7 4.9-40.8 2.4-22.2 4.5-41.7 4.8-43.5.5-3.6 1-3.3-10.6-4.8-4.4-.6-4.8-.4-5.2 1.7zm-110.8 2.5c-2.7.3-3.8.9-3.8 2.1 0 2.7 11.1 84.6 11.5 85.1.5.4 14.5-1.6 15.1-2.2.3-.3-2-19.3-5.1-42.4-3-23-5.5-42.2-5.5-42.6 0-.7-5.3-.7-12.2 0zm167.8 6.2c-1.4 4.3-18.4 82.6-18.1 82.9.4.5 14.9 4.2 15.1 3.9.7-.7 18.5-83 18.2-83.9-.2-.6-3.6-1.9-7.6-2.8-6.5-1.6-7.2-1.6-7.6-.1zm-222.8 2.8c-3.2.8-5.8 1.9-5.8 2.3 0 1.5 19 83.4 19.5 83.8.5.5 13-1.9 14.4-2.8.6-.3-2.9-17.5-8.7-42.8-10.9-47.5-8.9-43.3-19.4-40.5zm278.7 9.4c-1.5 4.2-25.4 79.8-25.7 81.4-.2 1.5 1 2.3 7.1 4.2 4.1 1.3 7.5 2.2 7.6 2.1.6-.8 26.7-83.9 26.4-84.2-.2-.1-3.1-1-6.4-2-3.3-1-6.6-2.1-7.2-2.3-.7-.3-1.5.1-1.8.8zm-332.7 6.6c-3.8 1.4-6.8 2.9-6.8 3.3 0 .8 29 80.3 29.4 80.8.4.3 13.7-4.6 14.4-5.3.6-.6-28.9-81.5-29.7-81.4-.3 0-3.6 1.2-7.3 2.6zm369.4 52l-17.1 39.8 7.1 3.3c3.9 1.8 7.4 2.9 7.8 2.5.5-.6 31.6-72.6 33.7-78 .3-.8-1.7-2.3-6.2-4.3-3.7-1.6-7-3-7.4-3-.4 0-8.5 17.9-17.9 39.7zM410 142.2c-3.6 1.6-6.6 3.1-6.8 3.3-.2.2 36.6 77.6 37.2 78.2.1.2 3.5-1.3 7.4-3.2l7.2-3.4-5.4-11.3c-16.6-35.2-32-66.8-32.5-66.7-.3 0-3.5 1.4-7.1 3.1zm515.3 81l-25.1 35.2 5.9 4.3c3.2 2.4 6.3 4.3 6.8 4.3.4 0 12.1-15.7 25.9-35l25.1-34.9-6.4-4.6c-3.5-2.5-6.5-4.5-6.7-4.5-.2.1-11.6 15.9-25.5 35.2zM311 201.1c-3 2.2-5.4 4.6-5.4 5.4.1 1.3 51.1 68.5 52 68.5.7 0 12.4-9 12.4-9.5 0-.7-52.1-68-52.8-68.3-.5-.1-3.2 1.6-6.2 3.9zm656.2 54.1L939 287.5l5.7 5.3c3.1 2.9 6 5.1 6.3 5 .4-.2 13.4-14.8 28.9-32.6L1008 233l-4.1-3.7c-4.9-4.4-7.2-6.2-8-6.3-.3 0-13.2 14.5-28.7 32.2zm-701.1-16.8l-5.3 5.3 30.4 31.6 30.3 31.6 5.8-5.7 5.7-5.6-7.3-7.6c-4-4.1-17.6-18.2-30.1-31.3-12.6-13-23.2-23.7-23.5-23.7-.4 0-3.1 2.4-6 5.4zM1006 291c-17.3 15.9-31.6 29.5-31.8 30.2-.1.7 2.1 3.6 5 6.5l5.3 5.1 31.5-29c17.3-15.9 31.5-29.3 31.5-29.7 0-.4-2.2-3.3-5-6.4l-5-5.6L1006 291zm-779.1-11.9c-3 3.5-4.8 6.4-4.3 6.9 2.7 2.6 65 55 65.4 55 .7 0 10.3-12 9.9-12.4-.5-.4-36-30.4-53.1-44.9L232.2 273l-5.3 6.1zm827.1 41.6c-10.7 8-26.2 19.4-34.3 25.5l-14.8 10.9 3.1 4.2c1.7 2.3 3.8 5.2 4.8 6.4l1.7 2.3 34.5-25.5c19-14 34.6-25.9 34.8-26.5.5-1.3-7.8-12-9.2-11.9-.6 0-9.9 6.6-20.6 14.6zm56 30.9c-41.5 24.4-75.8 44.8-76.3 45.3-.7.7 3.8 9.9 6.9 13.9.3.5 150.4-87.6 152.3-89.4 1.1-1 .7-2.3-2.5-7.8-2.2-3.6-4.1-6.6-4.4-6.5-.3 0-34.5 20-76 44.5zm-918.8-26.9c-2.4 3.6-4 6.9-3.5 7.3 1.1 1.1 71.3 47 71.7 47 .6 0 8.8-13.1 8.4-13.4-.2-.2-64.1-42.1-70.3-46.2-1.8-1.2-2.3-.8-6.3 5.3zm-109.6 1.9c-2.1 3.6-3.4 7-2.9 7.4 1.1 1.1 153.4 87 154.2 87 .3 0 2.3-3.1 4.3-6.8l3.7-6.8-77-43.5c-42.4-23.9-77.3-43.5-77.7-43.7-.4-.1-2.5 2.8-4.6 6.4zM1099 420c-19.5 9.3-37.1 17.7-39.2 18.7l-3.6 1.8 3.6 7.1 3.7 7.1 38.9-18.3c21.4-10.1 39.2-18.6 39.4-18.9.7-.6-5.9-14.5-6.7-14.4-.3 0-16.6 7.7-36.1 16.9zm-961.6.5c-.7 1.9-2.1 5.1-2.9 7.2-.8 2-1.4 3.7-1.3 3.8.2.1 14.7 6.2 32.3 13.5 17.6 7.3 35.4 14.8 39.6 16.6l7.7 3.2 3.1-7.1c1.7-3.9 2.8-7.4 2.4-7.8-1-.9-77.2-32.9-78.4-32.9-.6 0-1.7 1.6-2.5 3.5zm977.9 49.8c-21.5 7.3-39.5 13.5-39.8 13.9-.6.5 3 13.4 4.1 14.7.7.8 82.4-27.2 82.4-28.3 0-.7-.9-4-2.1-7.4-1.5-4.4-2.6-6.2-3.7-6.1-1 0-19.3 6-40.9 13.2zm-999.2 7.2c-1.3 4.2-2.1 7.8-2 8 1 .8 81.3 24.5 82.2 24.2 1-.3 6-14.7 5.1-14.7-.4 0-80.4-24.1-82-24.7-.6-.2-2 2.9-3.3 7.2zM1130 521.1c-21.7 4.9-40 9.1-40.6 9.3-.8.3-.7 2.4.5 7.5.9 3.8 1.9 7.2 2.2 7.5.6.7 83-17.3 84.1-18.3.4-.3 0-3.9-.9-7.9-1.4-6.2-1.9-7.2-3.7-7.1-1.2 0-19.9 4.1-41.6 9zm-1026.5 5.3c-.9 2.7-3.3 14.6-2.9 14.6.1 0 6.5 1.3 14.1 3 41 8.8 70.6 15 70.8 14.8.3-.5 3.4-15.3 3.2-15.4-.2-.2-14.3-3.2-69.5-14.9-10.7-2.3-15.5-2.9-15.7-2.1zm1035.6 46.7c-22.2 2.7-40.5 5-40.7 5.2-.6.5.8 13.4 1.5 14.6.5.7 14.1-.5 43.1-4 23.3-2.7 42.5-5.1 42.6-5.2.1-.1-.3-3.7-.9-8-.8-6.9-1.1-7.7-3.1-7.6-1.1.1-20.3 2.3-42.5 5zM94.5 583.4c-.2.6-.6 4.1-.9 7.9-.5 5-.3 6.8.6 7.1.7.2 11.2 1.3 23.3 2.5 12.1 1.2 30.9 3.1 41.8 4.3 10.9 1.1 19.9 1.9 20.1 1.7.2-.2.7-3.8 1.1-8l.6-7.6-11.3-1.2c-54.9-5.9-75-7.7-75.3-6.7zm1078 41.7c-29.7.3-57.7.7-62.2.8l-8.3.1v16.1l51.8-.6c28.4-.3 68.5-.8 89-1.1l37.2-.6V624l-26.7.2c-14.8.1-51.1.5-80.8.9zM87.2 639.7L0 640v16h178v-8.5c0-7.5-.2-8.5-1.7-8.3-1 .2-41.1.4-89.1.5zM1100.5 675c-.1.3-.4 3.9-.6 8l-.4 7.5 40 3.7c22 2 41.4 3.7 43.2 3.7l3.1.1.7-7.5c.4-4.2.6-7.7.4-7.9-.7-.7-86-8.2-86.4-7.6zM137 691.5l-42.5 5 .4 4c.6 8.1 1.6 12 3.1 11.8.8-.1 20.1-2.3 42.8-5l41.3-4.8-.7-6.5c-.4-3.6-.9-7.2-1.3-8-.5-1.3-6-.9-43.1 3.5zm955.8 39c-1.5 7.4-1.5 7.5.6 8 3.3.8 82 16.5 82.6 16.5.7 0 3.5-14.9 2.9-15.4-.5-.5-81-16.6-83-16.6-1.2 0-2 1.9-3.1 7.5zm-946.7 14.2c-22.8 5.1-41.6 9.5-41.9 9.8-.3.3.2 3.9 1.2 8.1 1.5 6.1 2.1 7.4 3.4 7 1-.3 19-4.4 40.2-9.1 21.2-4.7 39.3-8.8 40.3-9.1 1.6-.5 1.7-1.2 1.2-4.7-.4-2.3-1.3-5.7-1.9-7.7l-1.1-3.6-41.4 9.3zm935 30.4c-1.1 3.5-2.1 7-2.1 7.9 0 1.1 3.6 2.7 13.3 5.7 54.2 16.9 69 21.4 69.5 20.9.3-.4 1.5-3.8 2.8-7.6l2.2-7-14.2-4.4c-7.7-2.5-26-8.2-40.6-12.7-14.6-4.5-27-8.4-27.6-8.6-.7-.2-2.1 2.2-3.3 5.8zM159 794.7c-22.3 7.5-40.6 13.7-40.7 13.8-.2.1.9 3.6 2.3 7.7l2.5 7.6 40.7-13.5c22.4-7.5 40.9-13.7 41.1-13.9.6-.6-4.1-15.4-4.8-15.3-.3 0-18.8 6.2-41.1 13.6zm905.2 27.7l-3 7.5 7.1 3c4 1.6 19.1 7.9 33.7 13.9 26.1 10.8 39.2 16.2 39.5 16.2.9 0 5.5-14.3 4.9-14.9-.7-.6-69.7-29.6-77.8-32.7-.9-.3-2.3 1.9-4.4 7zm-877.7 19.2c-17 8-34.7 16.2-39.3 18.4l-8.2 3.9 3.2 6.8c1.8 3.7 3.4 7 3.5 7.2.3.4 76.5-34.8 77.7-36 .8-.7-3.4-11.7-5.4-14-.3-.4-14.4 5.8-31.5 13.7zm856.3 24.3l-3.8 7 8.8 4.9c34.8 19.8 146.5 82.2 146.7 82 2.4-3.1 7.4-13.3 6.8-13.9-1-.9-151.2-85.6-153.3-86.3-1.1-.4-2.6 1.5-5.2 6.3zm-880.3 48.2c-41.2 24.7-75.4 45-75.9 45.2-1 .3 6.4 13.7 7.7 13.7.7 0 150.5-88.6 151.9-89.9.7-.7-6.9-14.2-8-14-.4.1-34.4 20.3-75.7 45zm853.6-7.2c-2.3 3.3-4.1 6.2-4.1 6.5 0 .2 12 8.7 26.8 18.7 14.7 10 30.8 21.1 35.8 24.6l9.2 6.3 4.2-6.6c3.7-5.5 4.1-6.7 2.9-7.8-2.1-2-67.4-46.5-69.2-47.2-1.1-.4-2.7 1.3-5.6 5.5zM232 934.7c-17.9 13.5-33.3 25.1-34.4 25.8-1.8 1.3-1.6 1.7 2.5 7.4 2.4 3.3 4.8 6.1 5.3 6.1.7 0 65.6-48 69-51.1.8-.7-7.9-13-9.2-12.8-.4 0-15.3 11.1-33.2 24.6zm755.2 9.8l-5 5.7 32.5 28.9 32.6 28.9 5.3-5.7c2.9-3.2 5.3-6 5.3-6.3-.1-.8-63.3-56.3-64.5-56.7-.7-.2-3.4 2.1-6.2 5.2zM264 977c-16.8 15.9-30.6 29.5-30.8 30.2-.1.7 2.1 3.6 5 6.5l5.3 5.1 29-27.4c16-15.1 30.1-28.6 31.5-29.9l2.4-2.5-5.4-5.5c-3-3-5.7-5.5-6-5.5-.3 0-14.2 13.1-31 29zm688.5 3.2l-5.5 5.3 24.1 26c13.3 14.3 26.6 28.6 29.6 31.8l5.5 5.8 5.8-5.5 5.7-5.5-28.9-31.3c-15.9-17.2-29.4-31.5-29.9-31.6-.5-.2-3.4 2-6.4 5zm-651.8 34.1l-28.7 32.2 5.6 5.2c3 2.9 5.8 5.3 6.2 5.3.7 0 56.5-62.5 57-63.9.1-.5-2.4-3.1-5.6-5.9l-5.8-5.1-28.7 32.2zm616.1-5c-3.2 2.3-5.8 4.6-5.8 5 0 .8 32.5 45.2 46.8 64l4.3 5.7 4.2-3c2.3-1.7 5.2-3.8 6.5-4.8l2.2-1.7-25.5-34.5c-14-19-25.9-34.6-26.3-34.7-.4-.1-3.3 1.7-6.4 4zm-575.2 37.2c-13.5 18.9-24.7 34.9-24.8 35.5-.2.6 2.5 3.1 5.9 5.6l6.2 4.5 3.5-4.8c24.4-34.1 46.4-65.7 46.1-66.3-.2-.3-3.1-2.5-6.4-4.8l-5.9-4.2-24.6 34.5zm533.7-9.6c-3.9 2.2-6.1 4.1-5.8 4.9.7 1.9 88.6 149.4 89.9 150.9.9 1 2.6.3 7.9-2.8 6.5-3.9 6.7-4.2 5.4-6.2-.7-1.2-21.3-35.6-45.7-76.5-24.3-40.8-44.5-74.2-44.9-74.1-.3.1-3.4 1.7-6.8 3.8zm-470.7 6.4c-5.8 10-82.6 151-82.6 151.6 0 .3 3.1 2.2 6.8 4.2l6.9 3.6 42.4-77.5c23.3-42.6 42.5-77.8 42.6-78.1.2-.3-2.9-2.3-6.7-4.3l-6.9-3.8-2.5 4.3zm428.9 15.9c-3.9 1.8-7.1 3.3-7.3 3.4-.2.1 35.4 77.8 36.3 79.2.2.3 13.7-5.6 14.3-6.3.4-.3-30-66.9-34.7-76.2l-1.6-3.3-7 3.2zm-400 42.4c-9.2 21.7-16.6 39.6-16.4 39.8 1.7 1.1 14.1 5.7 14.5 5.4.6-.7 33.4-78 33.4-78.8 0-.7-12.4-6-13.9-6-.4 0-8.3 17.8-17.6 39.6zm354.5-24.5c-3 1-6 2.1-6.7 2.4-.8.3 1.3 7.7 6.8 23.7 4.5 12.8 10.8 31.2 14.1 40.8 3.3 9.6 6.2 17.7 6.4 17.9.2.2 3.7-.9 7.7-2.4l7.5-2.7-5.8-16.6c-3.2-9.2-9.6-27.6-14.2-40.9-4.6-13.4-8.7-24.3-9.3-24.2-.5 0-3.5.9-6.5 2zm-295.3 10.6c-20.5 67.4-22.4 73.8-21.3 74.4 2.3 1.2 13.6 4.2 14.1 3.8.2-.3 5.9-18.4 12.5-40.2 6.7-21.9 12.3-40.4 12.6-41.2.4-1-1.4-1.9-6.4-3.4-3.8-1.2-7.4-2.1-7.9-2.1s-2.2 3.9-3.6 8.7zm247.5 3c-3.9.9-6.2 1.9-5.9 2.7.2.6 4.6 19.1 9.6 41.1 5.1 22 9.4 40.5 9.6 41.2.3.8 2.3.6 7.5-.7 4-1 7.4-2.1 7.7-2.4.4-.4-16-73.7-18.3-81.9-.6-2-1.7-2-10.2 0zm-199.2 1.2c0 1.1-14.5 78.5-15.5 82.8-.5 1.9.1 2.2 7.3 3.5 7.5 1.4 7.7 1.4 8.4-.6.7-1.9 15.8-81.4 15.8-82.9 0-.3-2.6-1.1-5.7-1.7-3.2-.6-6.8-1.4-8-1.7-1.4-.3-2.3 0-2.3.6zm150.8 7c-2.6.4-4.9.9-5.2 1.2-.6.6 9.8 84.6 10.5 85.2.2.3 3.9 0 8.2-.6l7.7-.9-.5-3.2c-.3-1.7-2.5-19.5-5-39.6s-4.7-38-5-39.8c-.6-3.5-1.1-3.6-10.7-2.3zm-101.8 1.8c0 1-1.8 20.4-4 43.2-2.2 22.8-3.9 41.6-3.7 41.7.1.1 3.6.4 7.9.8l7.6.7.6-3.8c1.1-7.2 7.9-82.4 7.5-82.7-.2-.2-3.9-.7-8.1-1.1-7.2-.6-7.8-.5-7.8 1.2zm48 24.1c0 12.6.3 52.6.7 89l.6 66.2H655v-25.8c0-14.2-.3-54.3-.7-89l-.6-63.2H638v22.8z"/></svg>